<svg xmlns="http://www.w3.org/2000/svg" xmlns:xlink="http://www.w3.org/1999/xlink" viewBox="22 30 448.32 150"><defs><path id="reuse-0" d="M7 14a2 2 0 0 1-2-2 2 2 0 0 1 2-2 2 2 0 0 1 2 2 2 2 0 0 1-2 2m5.65-4A6 6 0 0 0 7 6a6 6 0 0 0-6 6 6 6 0 0 0 6 6 6 6 0 0 0 5.65-4H17v4h4v-4h2v-4H12.65Z" class="i pk"/></defs><style>.t{overflow:visible}.t-bg{y:40;fill:#111;stroke:#5eb9ff}.tf.pk,.th{fill:#5eb9ff}rect.th{stroke:#5eb9ff}.tht{fill:#000;font-size:14px}.tf{fill:#b8c2cc;overflow:visible}.tf.fk,.tf.pk{font-weight:700}.ty{fill:#494e52;font-weight:400;text-anchor:end}.r{fill:transparent;stroke:#c3c3c3;stroke-width:1}.i{fill:#c2c7ce;stroke:#c2c7ce}</style><g class="drawing-wrapper"><g class="rs" transform="translate(-319.64 -189.5)"><path id="h150956967" d="M619 314a1 1 0 1 0 2 0 1 1 0 1 0-2 0m.5 0a.5.5 0 1 0 1 0 .5.5 0 1 0-1 0m.5 0h-12m11 6a1 1 0 1 0 2 0 1 1 0 1 0-2 0m.5 0a.5.5 0 1 0 1 0 .5.5 0 1 0-1 0m.5 0-7-6 7-6m-1 0a1 1 0 1 0 2 0 1 1 0 1 0-2 0m.5 0a.5.5 0 1 0 1 0 .5.5 0 1 0-1 0m-11.5 6H496.36m-13 0a1 1 0 1 0 2 0 1 1 0 1 0-2 0m.5 0a.5.5 0 1 0 1 0 .5.5 0 1 0-1 0m.5 0h12m-6 6v-12" class="r"/></g><g class="ts" transform="translate(-319.64 -189.5)"><svg id="h754870549" width="105.36" height="100" x="379" y="257" class="t"><rect width="105.36" height="40" class="th"/><text x="13" y="25" class="tht" style="white-space:pre">new_model</text><rect width="105.36" height="60" class="t-bg"/><text x="13" y="61" class="tf pk" style="white-space:pre">id<tspan x="92.36" class="ty">int</tspan></text><use xlink:href="#reuse-0" class="i pk" transform="matrix(.65 0 0 .65 59.69 48)"/><text x="13" y="86" class="tf" style="white-space:pre">name<tspan x="92.36" class="ty">string</tspan></text></svg><svg id="h1553262528" width="132.61" height="125" x="620" y="232" class="t"><rect width="132.61" height="40" class="th"/><text x="13" y="25" class="tht" style="white-space:pre">numerical_model</text><rect width="132.61" height="85" class="t-bg"/><text x="13" y="61" class="tf pk" style="white-space:pre">id<tspan x="119.61" class="ty">int</tspan></text><use xlink:href="#reuse-0" class="i pk" transform="matrix(.65 0 0 .65 86.94 48)"/><text x="13" y="86" class="tf fk" style="white-space:pre">model_id<tspan x="119.61" class="ty">int</tspan></text><text x="13" y="111" class="tf" style="white-space:pre">value<tspan x="119.61" class="ty">float</tspan></text></svg></g></g></svg>