<svg xmlns="http://www.w3.org/2000/svg" xmlns:xlink="http://www.w3.org/1999/xlink" viewBox="-27.5 30 455.53 400"><defs><path id="reuse-0" d="M7 14a2 2 0 0 1-2-2 2 2 0 0 1 2-2 2 2 0 0 1 2 2 2 2 0 0 1-2 2m5.65-4A6 6 0 0 0 7 6a6 6 0 0 0-6 6 6 6 0 0 0 6 6 6 6 0 0 0 5.65-4H17v4h4v-4h2v-4H12.65Z" class="i pk"/></defs><style>.t{overflow:visible}.t-bg{y:40;fill:#111;stroke:#5eb9ff}.tf.pk,.th{fill:#5eb9ff}rect.th{stroke:#5eb9ff}.tht{fill:#000;font-size:14px}.tf{fill:#b8c2cc;overflow:visible}.tf.fk,.tf.pk{font-weight:700}.ty{fill:#494e52;font-weight:400;text-anchor:end}.r{fill:transparent;stroke:#c3c3c3;stroke-width:1}.i{fill:#c2c7ce;stroke:#c2c7ce}</style><g class="drawing-wrapper"><g class="rs" transform="translate(-121.66 -86.5)"><path id="h3724836321" d="M174 396a1 1 0 1 0 2 0 1 1 0 1 0-2 0m.5 0a.5.5 0 1 0 1 0 .5.5 0 1 0-1 0m.5 0h-12m11 6a1 1 0 1 0 2 0 1 1 0 1 0-2 0m.5 0a.5.5 0 1 0 1 0 .5.5 0 1 0-1 0m.5 0-7-6 7-6m-1 0a1 1 0 1 0 2 0 1 1 0 1 0-2 0m.5 0a.5.5 0 1 0 1 0 .5.5 0 1 0-1 0m-11.5 6c-50 0-50-170 0-170m11 0a1 1 0 1 0 2 0 1 1 0 1 0-2 0m.5 0a.5.5 0 1 0 1 0 .5.5 0 1 0-1 0m.5 0h-12m6 6v-12" class="r"/><path id="h1173478845" d="M292.03 421a1 1 0 1 0 2 0 1 1 0 1 0-2 0m.5 0a.5.5 0 1 0 1 0 .5.5 0 1 0-1 0m.5 0h12m-13 6a1 1 0 1 0 2 0 1 1 0 1 0-2 0m.5 0a.5.5 0 1 0 1 0 .5.5 0 1 0-1 0m.5 0 7-6-7-6m-1 0a1 1 0 1 0 2 0 1 1 0 1 0-2 0m.5 0a.5.5 0 1 0 1 0 .5.5 0 1 0-1 0m12.5 6H401m11 0a1 1 0 1 0 2 0 1 1 0 1 0-2 0m.5 0a.5.5 0 1 0 1 0 .5.5 0 1 0-1 0m.5 0h-12m6 6v-12" class="r"/><path id="h2323983666" d="M410 226a1 1 0 1 0 2 0 1 1 0 1 0-2 0m.5 0a.5.5 0 1 0 1 0 .5.5 0 1 0-1 0m.5 0h-12m11 6a1 1 0 1 0 2 0 1 1 0 1 0-2 0m.5 0a.5.5 0 1 0 1 0 .5.5 0 1 0-1 0m.5 0-7-6 7-6m-1 0a1 1 0 1 0 2 0 1 1 0 1 0-2 0m.5 0a.5.5 0 1 0 1 0 .5.5 0 1 0-1 0m-11.5 6h-71.95m-13 0a1 1 0 1 0 2 0 1 1 0 1 0-2 0m.5 0a.5.5 0 1 0 1 0 .5.5 0 1 0-1 0m.5 0h12m-6 6v-12" class="r"/></g><g class="ts" transform="translate(-121.66 -86.5)"><svg id="h2728321744" width="140.05" height="125" x="175" y="169" class="t"><rect width="140.05" height="40" class="th"/><text x="13" y="25" class="tht" style="white-space:pre">user</text><rect width="140.05" height="85" class="t-bg"/><text x="13" y="61" class="tf pk" style="white-space:pre">id<tspan x="127.05" class="ty">int</tspan></text><use xlink:href="#reuse-0" class="i pk" transform="matrix(.65 0 0 .65 94.38 48)"/><text x="13" y="86" class="tf" style="white-space:pre">name<tspan x="127.05" class="ty">string</tspan></text><text x="13" y="111" class="tf" style="white-space:pre">password<tspan x="127.05" class="ty">string?</tspan></text></svg><svg id="h1144850701" width="118.03" height="100" x="175" y="339" class="t"><rect width="118.03" height="40" class="th"/><text x="13" y="25" class="tht" style="white-space:pre">user_roles</text><rect width="118.03" height="60" class="t-bg"/><text x="13" y="61" class="tf pk" style="white-space:pre">user_id<tspan x="105.03" class="ty">int</tspan></text><use xlink:href="#reuse-0" class="i pk" transform="matrix(.65 0 0 .65 72.36 48)"/><text x="13" y="86" class="tf pk" style="white-space:pre">role_id<tspan x="105.03" class="ty">int</tspan></text><use xlink:href="#reuse-0" class="i pk" transform="matrix(.65 0 0 .65 72.36 73)"/></svg><svg id="h1984242216" width="105.36" height="125" x="413" y="364" class="t"><rect width="105.36" height="40" class="th"/><text x="13" y="25" class="tht" style="white-space:pre">role</text><rect width="105.36" height="85" class="t-bg"/><text x="13" y="61" class="tf pk" style="white-space:pre">id<tspan x="92.36" class="ty">int</tspan></text><use xlink:href="#reuse-0" class="i pk" transform="matrix(.65 0 0 .65 59.69 48)"/><text x="13" y="86" class="tf" style="white-space:pre">name<tspan x="92.36" class="ty">string</tspan></text><text x="13" y="111" class="tf" style="white-space:pre">level<tspan x="92.36" class="ty">int</tspan></text></svg><svg id="h4087380529" width="100.02" height="125" x="411" y="144" class="t"><rect width="100.02" height="40" class="th"/><text x="13" y="25" class="tht" style="white-space:pre">entry</text><rect width="100.02" height="85" class="t-bg"/><text x="13" y="61" class="tf pk" style="white-space:pre">id<tspan x="87.02" class="ty">int</tspan></text><use xlink:href="#reuse-0" class="i pk" transform="matrix(.65 0 0 .65 54.35 48)"/><text x="13" y="86" class="tf fk" style="white-space:pre">user_id<tspan x="87.02" class="ty">int</tspan></text><text x="13" y="111" class="tf" style="white-space:pre">data<tspan x="87.02" class="ty">TEXT</tspan></text></svg></g></g></svg>