<svg xmlns="http://www.w3.org/2000/svg" viewBox="0 0 360 360"><path fill="#fff" d="M106.7 331.65a89.37 89.37 0 0 1-6.24-1.54l-3.97-1.1a5 5 0 0 1-3.06-7.21l2.45-4.5c-2.57-3.56-5.93-10.73-5.93-13.65 0-6.41 8.13-15.42 16.4-19.7a22.51 22.51 0 0 1 18.3-.38 6.8 6.8 0 0 1 1.48-2.16 7.8 7.8 0 0 1 3.99-1.45c.69 0 1.71.15 2.28.32.4.12 1.19.46 1.63.76.72.5 2.27 2.72 2.27 4.26 0 1.3-5 13.38-6.15 15.4a19.5 19.5 0 0 1 2.34 2.47c.98-3.94 4-8.02 7.95-11.67 6.85-6.1 13.53-9.17 21.3-9.17 5.38 0 7.8.7 11.7 2.96 1.06.72 2.08 1.56 3.03 2.47a7.13 7.13 0 0 1 1.89-3.8 8.13 8.13 0 0 1 2.78-1.3c1.86-.45 5.73-.67 10.78-.67 5.05 0 8.87.23 10.72.66.68.17 1.97.67 2.69 1.24.66.52 1.82 2.3 1.96 3.49a7 7 0 0 1-1.27 4.04c-.95 1.08-3.16 1.97-4.64 2.37-.23 1.9-.23 5.5-.23 12.48 0 6.65-.01 11.42.04 13.34h1.13c3.45 0 4.5-.16 5.53-.88.98-.68 1.36-1.34 2.22-4.27a10.56 10.56 0 0 1 1.94-3.21c1-.96 3.79-1.86 5.27-1.52 1.56.36 3.77 2.66 4.16 4.1a9.7 9.7 0 0 1-.1 3.81c-.18.63-.53 3.21-.77 5.72l-.51 4.82a5 5 0 0 1-4.97 4.48h-13.16c.13 2.15-.1 4.86-.67 6.88a19.69 19.69 0 0 1-4.73 6.83c-2.61 1.93-5.41 2.83-9.53 2.94-2.55-.11-6.87-.8-9.41-1.7-1.98-.77-7.47-3-12.11-5.06-6.15-2.66-8.85-3.7-10.53-3.8-.77-.05-.03-.5-1.54 1.4a14.6 14.6 0 0 1-2.18 2.07 8.3 8.3 0 0 1-1.87.96c-.97.31-3.56-.43-5.27-1.2-.74-1.08-1.66-2.77-1.72-3.72-.04-.7.13-1.78.3-2.35.26-.9.87-2.14 1.42-3.04a25.6 25.6 0 0 1 2.78-3.57 34.13 34.13 0 0 1-12.06-12.37 25.95 25.95 0 0 1-4.3 7.17c-6.23 6.57-13.77 9-23.8 7.55Zm75.86-33.48c1 4.82.02 11.04-2.43 16.56a35.02 35.02 0 0 1-11.07 13.09c.85.32 1.69.65 2.5.98 11.1 4.74 13.34 5.44 16.98 5.44 1.57 0 1.26.16 1.66-.38.35-.49.51-.27 0-1.28a289.1 289.1 0 0 1-3.87-.1 71.54 71.54 0 0 1-3.9-.24c-.5-.05-1.11-.13-1.52-.22a7.78 7.78 0 0 1-1.22-.38c-.3-.13-1-.55-1.38-.88a6.86 6.86 0 0 1-1.7-3.78c0-1.63 1.55-3.79 2.2-4.27.4-.31 1.07-.7 1.5-.9.57-.26 1.44-.58 2.26-.83l.39-6.64c.67-11.24.67-18.52.23-20.48-.1 0 .12-.02-.52-.06-.63-.15-1.33-.36-2.02-.63.9 1.62 1.55 3.3 1.9 5Zm33.01 25.42v.04l.01-.04Z"/><path fill="#fff" d="M214.57 326.56c0-2.36 3.02-5.34 4.51-6.27.28.3-.1.19 2.89-5.65 4.86-9.48 12.51-25.68 13.04-27.73 1.2-2.86 3.73-4.7 7.22-5.75l2.2-.17a5 5 0 0 1 5.41 4.8c.18-.03 1.55 2.56 3.38 6.44a445 445 0 0 0 9.06 18.86c4.7 9.73 4.22 9.46 4.9 9.52.9.4 1.72.94 2.37 1.53.8.72 2.2 2.95 2.2 4.59 0 1.17-1.4 4.04-3.01 4.86-.78.4-2.06.67-2.94.75-1.36.12-3.68.15-7.43.15-3.83 0-6.17-.03-7.53-.15a9.29 9.29 0 0 1-2.98-.77c-1.64-.86-2.94-3.75-2.94-4.84 0-1.52 1.28-3.78 2.19-4.56l.2-.17-.8-1.93-.99-2.3h-10.27l-.32.74c-.58 1.25-1 2.17-1.28 2.85.44.24.86.5 1.17.77 1.42 1.24 1.84 4.28 1.74 5.76-.36.88-1.2 2.63-2.4 3.4-.76.5-2.12.9-2.94 1.02a50 50 0 0 1-5.61.18c-2.87.04-4.77.04-5.96-.15-1-.16-2.88-1-3.7-1.94-1.06-1.2-1.38-3.32-1.38-3.84Z"/><path fill="#FFF" d="M179.92 266.87c-22.75 0-42.1-5.16-61.8-16.57-19.7-11.33-33.82-25.45-45.15-45.15-11.42-19.7-16.57-39.06-16.57-61.72 0-22.74 5.15-42.1 16.57-61.8C84.3 61.93 98.42 47.82 118.1 36.5c19.7-11.42 39.06-16.57 61.72-16.57 22.74 0 42.1 5.15 61.8 16.57 19.7 11.32 33.82 25.44 45.15 45.14 11.41 19.7 16.57 39.06 16.57 61.72 0 22.74-5.16 42.1-16.57 61.8-11.33 19.7-25.45 33.82-45.15 45.15-19.7 11.41-39.06 16.57-61.71 16.57Z"/><path fill="#000" d="M216.53 120.1c1.44-1.95 1.02-4.66.34-7.02-.68-1.95-.68-3.9 0-5.33 2.11-3.97 8.96-4.14 15.05-.34 6.26 3.72 9.47 9.8 7.35 13.78a6.9 6.9 0 0 1-4.48 2.8c-2.36.41-4.65 1.43-5.58 3.8l-8.22 19.7h8.4c5.23 0 7.94 0 9.55 2.1 1.6 1.95 1.01 4.15.16 8.63a49.35 49.35 0 0 1-22.06 30.6c-2.11 1.27-3.04 3.9-1.78 6.1a4.43 4.43 0 0 1-3.88 6.42H171.8a4.35 4.35 0 0 1-3.97-6.43 4.7 4.7 0 0 0-1.95-6.08 48.63 48.63 0 0 1-18.05-19.87h-11.12c-1.1 0-2.03-.17-2.96-.6a6.86 6.86 0 0 1-2.45-1.6 7.07 7.07 0 0 1-1.69-2.45 7 7 0 0 1-.34-4.73c.17-.51.34-1.02.6-1.53v-.08h-.09a44.7 44.7 0 0 1-12.85-12 45.56 45.56 0 0 1-7.19-15.99c-.25-1.01-.42-1.94-.59-2.7a16.97 16.97 0 0 1-.25-2.7 7.45 7.45 0 0 1 1.78-5.07 7.02 7.02 0 0 1 2.36-2.12c.76-.43 1.7-.77 2.79-.93.85-.17 1.7-.26 2.79-.26h37.06l15.02-21.13s.17 0 .17-.17v-.43c0-.59-.17-1.18-.25-1.77 0 0 0 .08 0 0a9.33 9.33 0 0 1-.77-3.64c0-.67.17-1.35.26-1.94.17-.68.34-1.27.59-1.95 0 0 .17 0 .17-.08a9.1 9.1 0 0 1 3.89-3.64c.76-.25 1.52-.59 2.37-.67a12.2 12.2 0 0 1 2.45-.34 18.91 18.91 0 0 1 9.38 2.87 13.8 13.8 0 0 1 3.21 2.54 12.6 12.6 0 0 1 2.7 2.96 7.3 7.3 0 0 1 1.78 3.38c.6 1.19.77 2.54.77 3.72 0 .76 0 1.36-.17 2.12-.26.76-.43 1.35-.85 2.1 0 .18 0 .18-.17.18-.25.59-.76 1.01-1.18 1.44-.43.5-.93.93-1.52 1.18a8.4 8.4 0 0 1-3.55 1.52h-.17c-.26 0-.6.17-.76.17-.09.17-.43.17-.6.25l-.08.17v.17h-.17l-4.63 11h4.2c1.02 0 1.95.08 2.8.25a8.34 8.34 0 0 1 4.14 1.86c.42.33.76.76 1.1 1.18a7.1 7.1 0 0 1 1.27 2.37c.25.76.42 1.69.42 2.62 0 .76-.08 1.6-.25 2.62a54 54 0 0 0-.51 2.7c-.09.09-.09.09-.09.17a45.05 45.05 0 0 1-8.4 17.5h8.81l19.46-27.39Zm-72.45 38.12c-1.1-4.48-1.44-6.68.17-8.62 1.6-2.12 4.06-2.12 9.47-2.12h23.77a37.04 37.04 0 0 0 5.48-6.08 38.1 38.1 0 0 0 6-13.2c.17-.92.34-1.68.5-2.44.1-.43.1-.93.1-1.27 0-.09.08-.09.08-.09l-.09-.08c-.08 0-.25-.09-.42-.09-.42-.08-1.01-.08-1.6-.17h-68.66c-.59.09-1.18.09-1.6.17-.17 0-.26 0-.34.09l-.08.08v.17c0 .43 0 .76.08 1.27.17.68.34 1.44.5 2.28 0 0 0 .09.1.09a36.25 36.25 0 0 0 5.82 13.19 36.26 36.26 0 0 0 10.49 9.8 8.5 8.5 0 0 1 1.69 1.27c.42.5.84 1.02 1.18 1.6.34.6.6 1.28.85 1.87a9.04 9.04 0 0 1 .08 3.8c-.17.43-.25.85-.5 1.36h7.66c-.28-.95-.52-1.91-.73-2.88Zm36.77-55.97c.51-.93.93-1.69 1.53-2.45a9.54 9.54 0 0 1 2.11-1.6c.6-.43 1.35-.77 2.03-1.02.6-.17 1.35-.34 2.11-.5 0 0-.17 0 0 0s.43-.1.6-.26c.16 0 .16-.17.33-.17v-.34c0-.25 0-.67-.17-1.01a4.32 4.32 0 0 0-.93-1.52c-.42-.6-.84-1.19-1.43-1.78-.6-.42-1.36-1.01-2.29-1.44a8.55 8.55 0 0 0-2.79-1.35 6.11 6.11 0 0 0-2.36-.42c-.34 0-.68.08-.93.08-.17 0-.43.17-.6.17l-.16.17c0 .17-.17.17-.17.25 0 .34.17.77.33 1.1v.09c.43 1.35.76 2.87.76 4.22 0 .85-.16 1.78-.33 2.54-.26.85-.76 1.78-1.19 2.54l-11.85 16.65h9.63l5.77-13.95Zm-47 48.95v-.08l.08.08h-.08Zm-24.1-21.3s0 .08 0 0Z"/><path d="m143.05 48.07-4.81 2.03-4.74 2.28-4.56 2.45-4.48 2.7-4.32 2.97-4.14 3.13-3.97 3.38-3.8 3.55-3.64 3.8-3.47 3.9-3.21 4.13-2.96 4.23-2.8 4.48-2.53 4.48-2.37 4.74-2.02 4.73-1.86 4.9-1.61 5-1.27 5.07-1.1 5.07-.76 5.16-.5 5.24-.34 5.16v5.24l.33 5.24.51 5.16.76 5.15 1.1 5.16 1.27 4.99 1.6 4.99 1.87 4.9 2.02 4.82 2.37 4.65 2.54 4.56 2.79 4.4 3.04 4.23 3.22 4.14 3.38 3.89 3.63 3.8 3.8 3.55 3.98 3.39 4.14 3.12 4.31 2.96 4.48 2.7 4.57 2.55 4.74 2.2 4.81 2.02 6.77-17.58-3.8-1.6-3.81-1.78-3.64-1.95-3.55-2.2-3.46-2.28-3.38-2.54-3.13-2.62-3.13-2.87-2.88-2.96-2.79-3.13-2.62-3.21-2.45-3.38-2.2-3.47-2.11-3.63-1.95-3.72-1.69-3.8-1.52-3.81-1.35-3.98-1.1-3.97-.93-4.06-.76-4.14-.5-4.14-.35-4.15-.08-4.14.08-4.14.34-4.23.51-4.06.76-4.14.93-4.06 1.1-3.97 1.35-3.98 1.52-3.88 1.7-3.8 1.94-3.65 2.11-3.63 2.29-3.47 2.36-3.38 2.62-3.3 2.8-3.04 2.95-3.04 3.05-2.8 3.2-2.61 3.3-2.54 3.47-2.28 3.55-2.2 3.64-1.95 3.8-1.77 3.8-1.6-6.76-17.76Zm73.47-.09 4.82 2.03 4.74 2.29 4.56 2.45 4.48 2.7 4.31 2.96 4.15 3.13 3.97 3.38 3.8 3.55 3.64 3.8 3.47 3.9 3.21 4.14 2.96 4.23 2.79 4.48 2.53 4.48 2.37 4.73 2.03 4.74 1.86 4.9 1.6 4.99 1.28 5.07 1.1 5.07.76 5.16.5 5.24.34 5.16v5.24l-.34 5.24-.5 5.16-.76 5.16-1.1 5.15-1.27 5-1.6 4.98-1.87 4.9-2.03 4.82-2.37 4.65-2.53 4.57-2.8 4.4-3.04 4.22-3.2 4.15-3.39 3.89-3.64 3.8-3.8 3.55-3.97 3.38-4.15 3.13-4.3 2.96-4.49 2.7-4.56 2.54-4.74 2.2-4.82 2.03-6.76-17.59 3.8-1.6 3.8-1.78 3.64-1.94 3.56-2.2 3.46-2.28 3.38-2.54 3.13-2.62 3.13-2.88 2.87-2.95 2.8-3.13 2.61-3.22 2.46-3.38 2.2-3.46 2.1-3.64 1.95-3.72 1.7-3.8 1.51-3.8 1.36-3.98 1.1-3.98.93-4.05.76-4.15.5-4.14.34-4.14.09-4.14-.09-4.15-.34-4.22-.5-4.06-.76-4.15-.93-4.05-1.1-3.98-1.36-3.97-1.52-3.89-1.69-3.8-1.94-3.64-2.12-3.63-2.28-3.47-2.37-3.38-2.62-3.3-2.79-3.04-2.96-3.05-3.04-2.79-3.21-2.62-3.3-2.53-3.47-2.29-3.55-2.2-3.63-1.94-3.8-1.78-3.81-1.6 6.76-17.75Z"/><path d="m179.83 44.69-29 28.74-11.67-32.38 40.67 3.64Zm-1.01 195.97 28.91-28.75 11.67 32.39-40.58-3.64Z"/><path d="M146.77 267.3A127.36 127.36 0 0 1 116 254.26a122.01 122.01 0 0 1-26.63-20.2 122 122 0 0 1-20.2-26.63 127.36 127.36 0 0 1-13.03-30.78A127.6 127.6 0 0 1 52 143.52c0-11.84 1.35-22.74 4.14-33.23a127.35 127.35 0 0 1 13.02-30.77 122 122 0 0 1 20.2-26.63A122 122 0 0 1 116 32.69a127.36 127.36 0 0 1 30.77-13.03 127.6 127.6 0 0 1 33.15-4.14c11.83 0 22.74 1.35 33.22 4.14a127.33 127.33 0 0 1 30.78 13.02 122.05 122.05 0 0 1 26.63 20.2 122.31 122.31 0 0 1 20.2 26.64 127.35 127.35 0 0 1 13.02 30.77 127.58 127.58 0 0 1 4.15 33.14c0 11.84-1.36 22.75-4.15 33.23a127.36 127.36 0 0 1-13.02 30.78 122.07 122.07 0 0 1-20.2 26.63 121.83 121.83 0 0 1-26.64 20.2 127.33 127.33 0 0 1-30.77 13.02 127.58 127.58 0 0 1-33.14 4.14c-11.84 0-22.74-1.35-33.23-4.14Zm2.37-238.93a116.5 116.5 0 0 0-28.66 12.09A113.66 113.66 0 0 0 76.94 84a116.52 116.52 0 0 0-12.09 28.66 117.33 117.33 0 0 0-3.89 30.86c0 10.9 1.27 21.05 3.9 30.77 2.61 9.81 6.59 19.2 12.08 28.66a113.66 113.66 0 0 0 43.54 43.54 116.5 116.5 0 0 0 28.66 12.1 117.33 117.33 0 0 0 30.86 3.88c10.9 0 21.05-1.27 30.77-3.89 9.81-2.62 19.2-6.6 28.66-12.09a113.71 113.71 0 0 0 43.55-43.54 116.44 116.44 0 0 0 12.08-28.66 117.37 117.37 0 0 0 3.9-30.85c0-10.91-1.27-21.06-3.9-30.78A116.6 116.6 0 0 0 282.98 84a113.69 113.69 0 0 0-43.55-43.54 116.52 116.52 0 0 0-28.66-12.09 117.33 117.33 0 0 0-30.85-3.89 117.2 117.2 0 0 0-30.78 3.89Zm-41.59 298.36a79.48 79.48 0 0 1-5.75-1.44l-3.98-1.1 2.03-3.72 2.03-3.72-1.69-2.03c-2.28-2.79-5.24-9.05-5.24-11.07 0-4.74 6.09-11.5 13.61-15.22 5.16-2.54 9.22-2.54 14.37-.17l3.9 1.77 1.1-1.6a6.32 6.32 0 0 0 1.09-2.54c0-.5.5-.93 1.1-.93.67 0 1.18.17 1.18.34 0 .42-4.56 11.84-4.82 12.09-.17.17-1.35-.42-2.7-1.27-3.9-2.28-8.88-3.8-12.6-3.89-8.88-.25-12 8.46-5.75 15.98l2.2 2.7 6-4.9c6.77-5.4 7.53-5.58 12.77-1.94 5.92 4.14 6 10.31.34 16.74-5.07 5.83-10.32 7.44-19.2 5.92Zm15.13-6.26c2.87-2.28 2.7-6.51-.42-9.9-3.98-4.3-5.25-4.13-12.26 1.78-7.02 5.84-7.02 5.58 1.27 8.29 5.58 1.78 8.96 1.69 11.4-.17Zm56.73 22.49c-1.95-.76-7.36-2.96-11.92-4.99-12.52-5.41-14.2-5.5-17.93-1.01-.84 1.01-1.77 1.69-2.03 1.43-.84-.76 1.53-4.56 4.4-7.1 2.28-2.03 3.04-2.28 5.67-2.03 1.6.17 7.01 2.12 12 4.14 11.33 4.82 14.54 5.84 18.94 5.84 5.24 0 7.86-3.64 6.25-8.54-.42-1.18-.33-1.6.51-1.6 1.52 0 2.28 5.66 1.19 8.95a9.87 9.87 0 0 1-3.05 4.4c-1.77 1.52-2.87 1.86-6.25 1.86a29.22 29.22 0 0 1-7.78-1.35Zm-29-17.42a24.99 24.99 0 0 1-11.25-11.07c-3.8-7.7-2.62-12.68 4.66-19.28 6.17-5.66 11.16-7.86 17.92-7.86 4.82 0 5.92.25 9.04 2.2 7.44 4.65 9.3 13.44 4.82 23.08-5.32 11.33-16.4 17-25.19 12.93Zm15.47-5.4c3.47-1.7 5.84-9.56 4.9-16.16-1.26-8.11-12.17-13.6-20.2-10.23-8.29 3.56-8.37 12.94-.26 21.4 5.67 5.91 10.49 7.52 15.56 4.98Zm15.73 6.84c0-.34 1.26-.93 2.87-1.35l2.88-.68.59-10.31c.67-11.5.17-22.75-1.02-24.27a7.2 7.2 0 0 0-3.13-1.44c-5.07-1.18-1.69-1.94 8.12-1.94 9.8 0 12.94.76 8.29 1.94-4.06.94-4.06 1.02-4.06 17.34 0 9.13.34 15.98.84 16.82.6 1.27 1.61 1.52 5.33 1.52 7.78 0 10.4-1.86 12.51-8.62.68-2.11 2.28-1.7 1.7.34-.26.93-.68 3.89-.94 6.5l-.5 4.83h-16.74c-9.22 0-16.74-.26-16.74-.68Z"/><path fill="#CA2727" d="M219.57 326.56c0-.6.59-1.19 1.52-1.7 1.35-.59 2.2-1.85 5.32-7.94 4.9-9.55 12.69-26.04 13.36-28.5.6-1.85.68-1.94 2.8-2.28l2.28-.16c0 .08 1.69 3.8 3.8 8.28 2.03 4.57 6.09 13.1 9.13 19.02 4.9 10.07 5.5 10.91 7.1 11.76 1.02.42 1.86 1.18 1.86 1.69 0 .67-.93.76-8.37.76-7.6 0-8.45-.09-8.45-.76 0-.51.59-1.02 1.69-1.44.93-.25 1.69-.85 1.69-1.27 0-.42-1.02-3.13-2.2-5.92l-2.28-5.32H232l-1.61 3.63c-3.04 6.6-3.04 8.2-.25 8.88 1.43.42 1.77.76 1.6 1.35-.17.76-.93.85-6.17.85-5.66.08-6 0-6-.93Zm27.56-16.49c.25-.5-6-14.37-6.6-14.46-.42-.17-7.01 13.36-7.01 14.38 0 .5 13.35.59 13.6.08Z"/></svg>