<svg xmlns="http://www.w3.org/2000/svg" viewBox="0 0 379.71 332"><g class="graph"><g class="node"><path fill="#474949" stroke="rgba(255,255,255,.25)" d="M290 292H94v36h196v-36z"/><text x="188" y="-14.3" font-family="Times,serif" font-size="14" fill="#fff" text-anchor="middle" transform="translate(4 328)">flask_sqlalchemy_compat</text></g><g class="node"><path fill="#474949" stroke="rgba(255,255,255,.25)" d="M219 220h-54v36h54v-36z"/><text x="188" y="-86.3" font-family="Times,serif" font-size="14" fill="#fff" text-anchor="middle" transform="translate(4 328)">.auto</text></g><g stroke="#fff" fill="#fff" class="edge"><path fill="none" d="M192 291.7v-25.59"/><path d="m192 256.1-4.5 10 4.5-5v5-5l4.5 5-4.5-10z"/></g><g class="node"><path fill="#474949" stroke="rgba(255,255,255,.25)" d="M170.5 148h-105v36h105v-36z"/><text x="114" y="-158.3" font-family="Times,serif" font-size="14" fill="#fff" text-anchor="middle" transform="translate(4 328)">.flask_sa_api</text></g><g stroke="#fff" fill="#fff" class="edge"><path fill="none" d="M179.12 291.87c-7.29-10.13-16.29-23.38-23.12-35.87-11.03-20.18-21.13-44.23-28.14-62.24"/><path d="m124.2 184.19-.63 10.95 2.42-6.28 1.78 4.67-1.78-4.67 5.99 3.06-7.78-7.73z"/></g><g class="node"><path fill="#474949" stroke="rgba(255,255,255,.25)" d="M362.5 148h-135v36h135v-36z"/><text x="291" y="-158.3" font-family="Times,serif" font-size="14" fill="#fff" text-anchor="middle" transform="translate(4 328)">.flask_sa_lite_api</text></g><g stroke="#fff" fill="#fff" class="edge"><path fill="none" d="m204.42 291.87 72.07-99.36"/><path d="m282.53 184.19-9.51 5.45 6.58-1.4-2.94 4.04 2.94-4.04.7 6.69 2.23-10.74z"/></g><g class="node"><path fill="#474949" stroke="rgba(255,255,255,.25)" d="M278.5 4h-87v36h87V4z"/><text x="231" y="-302.3" font-family="Times,serif" font-size="14" fill="#fff" text-anchor="middle" transform="translate(4 328)">.protocols</text></g><g stroke="#fff" fill="#fff" class="edge"><path fill="none" d="M237.87 291.85C281.32 272.84 343.96 237.6 372 184c13.86-26.49-17.31-107.18-18-108-16.67-19.85-42.27-32.55-65.46-40.53"/><path d="m278.78 32.34 8.15 7.34-3.39-5.81 4.76 1.53-4.76-1.53 6.14-2.76-10.9 1.23z"/></g><g class="node"><path fill="#474949" stroke="rgba(255,255,255,.25)" d="M80 76H4v36h76V76z"/><text x="38" y="-230.3" font-family="Times,serif" font-size="14" fill="#fff" text-anchor="middle" transform="translate(4 328)">.utilities</text></g><g stroke="#fff" fill="#fff" class="edge"><path fill="none" d="M156.04 291.93C118.66 271.95 62.28 234.99 38 184c-9.22-19.35-7.28-43.83-3.57-62.22"/><path d="m36.68 112.01-6.63 8.73 5.51-3.86-1.12 4.87 1.12-4.87 3.26 5.88-2.14-10.75z"/></g><g class="node"><path fill="#474949" stroke="rgba(255,255,255,.25)" d="M229 76h-88v36h88V76z"/><text x="181" y="-230.3" font-family="Times,serif" font-size="14" fill="#fff" text-anchor="middle" transform="translate(4 328)">.backends</text></g><g stroke="#fff" fill="#fff" class="edge"><path fill="none" d="m191.16 219.87-4.81-97.48"/><path d="m185.85 112.19-4 10.21 4.24-5.22.25 5-.25-5 4.74 4.78-4.98-9.77z"/></g><g stroke="#fff" fill="#fff" class="edge"><path fill="none" d="m173.71 219.7-30.31-28.67"/><path d="m136.08 184.1 4.17 10.15-.54-6.71 3.64 3.44-3.64-3.44 6.73.17-10.36-3.61z"/></g><g stroke="#fff" fill="#fff" class="edge"><path fill="none" d="m217.2 219.88 43.91-29.85"/><path d="m269.71 184.19-10.8 1.9 6.66.91-4.13 2.81 4.13-2.81-1.6 6.53 5.74-9.34z"/></g><g stroke="#fff" fill="#fff" class="edge"><path fill="none" d="M164.86 234.36c-31.34-4.58-82.01-17-108.86-50.36-13.84-17.19-16.67-42.47-16.43-61.7"/><path d="m39.99 112.06-4.91 9.81 4.7-4.81-.2 4.99.2-4.99 4.29 5.18-4.08-10.18z"/></g><g class="node"><path fill="#474949" stroke="rgba(255,255,255,.25)" d="M328.5 76h-81v36h81V76z"/><text x="284" y="-230.3" font-family="Times,serif" font-size="14" fill="#fff" text-anchor="middle" transform="translate(4 328)">.backdict</text></g><g stroke="#fff" fill="#fff" class="edge"><path fill="none" d="m134.56 147.7 26.91-28.12"/><path d="m168.63 112.1-10.17 4.12 6.71-.5-3.46 3.61 3.46-3.61-.2 6.72 3.66-10.34z"/></g><g stroke="#fff" fill="#fff" class="edge"><path fill="none" d="M116.35 147.89c-.95-19.3.35-50.72 15.65-71.89 12.24-16.94 31.52-28.86 50.11-37.05"/><path d="m191.43 35.12-10.96-.36 6.34 2.26-4.63 1.9 4.63-1.9-2.91 6.06 7.53-7.96z"/></g><g stroke="#fff" fill="#fff" class="edge"><path fill="none" d="m99.21 147.7-31.12-28.67"/><path d="m60.57 112.1 4.31 10.09-.63-6.7 3.68 3.39-3.68-3.39 6.72.08-10.4-3.47z"/></g><g stroke="#fff" fill="#fff" class="edge"><path fill="none" d="m293.27 147.7-2.56-25.59"/><path d="m289.71 112.1-3.48 10.4 3.98-5.42.5 4.97-.5-4.97 4.97 4.53-5.47-9.51z"/></g><g stroke="#fff" fill="#fff" class="edge"><path fill="none" d="m268.09 147.88-47.33-30.12"/><path d="m212.01 112.19 6.02 9.17-1.8-6.49 4.22 2.69-4.22-2.69 6.64-1.11-10.86-1.57z"/></g><g stroke="#fff" fill="#fff" class="edge"><path fill="none" d="M313.67 147.75C331.15 129.43 352.57 99.88 338 76c-11.16-18.29-30.88-30.54-50.09-38.61"/><path d="m278.55 33.76 7.7 7.82-3.03-6.01 4.66 1.81-4.66-1.81 6.29-2.38-10.96.57z"/></g><g stroke="#fff" fill="#fff" class="edge"><path fill="none" d="M80.13 79.17 181.5 42.4"/><path d="m191.21 38.88-10.93-.82 6.23 2.53-4.7 1.7 4.7-1.7-3.16 5.93 7.86-7.64z"/></g></g></svg>